{"title":"2 Guns 2013 WEBrip XVID AC3 BHRG","uid":9083372,"size":1130328348,"categoryP":"video","categoryS":"movies","magnet":"?xt=urn:btih:5d882a99b8f2ef0f4eca959214c75619896a0834&amp;dn=2+Guns+2013+WEBrip+XVID+AC3+BHRG&amp;tr=udp%3A%2F%2Ftracker.openbittorrent.com%3A80&amp;tr=udp%3A%2F%2Fopen.demonii.com%3A1337&amp;tr=udp%3A%2F%2Ftracker.coppersurfer.tk%3A6969&amp;tr=udp%3A%2F%2Fexodus.desync.com%3A6969","seeders":2,"leechers":0,"uploader":"mindcrasher","files":-1,"time":1382419387,"description":"\nFormat                                   : AVI\nFormat/Info                              : Audio Video Interleave\nFile size                                : 1.05 GiB\nDuration                                 : 1h 44mn\nOverall bit rate                         : 1 443 Kbps\nWriting library                          : VirtualDub build 30091/release\n\nVideo\nID                                       : 0\nFormat                                   : MPEG-4 Visual\nFormat profile                           : Advanced Simple@L5\nFormat settings, BVOP                    : 2\nFormat settings, QPel                    : No\nFormat settings, GMC                     : No warppoints\nFormat settings, Matrix                  : Default (H.263)\nMuxing mode                              : Packed bitstream\nCodec ID                                 : XVID\nCodec ID/Hint                            : XviD\nDuration                                 : 1h 44mn\nBit rate                                 : 1 291 Kbps\nWidth                                    : 640 pixels\nHeight                                   : 272 pixels\nDisplay aspect ratio                     : 2.35:1\nFrame rate                               : 60.000 fps\nColor space                              : YUV\nChroma subsampling                       : 4:2:0\nBit depth                                : 8 bits\nScan type                                : Progressive\nCompression mode                         : Lossy\nBits/(Pixel*Frame)                       : 0.124\nStream size                              : 961 MiB (89%)\nWriting library                          : XviD 1.2.1 (UTC 2008-12-04)\n\nAudio\nID                                       : 1\nFormat                                   : AC-3\nFormat/Info                              : Audio Coding 3\nMode extension                           : CM (complete main)\nFormat settings, Endianness              : Big\nCodec ID                                 : 2000\nDuration                                 : 1h 44mn\nBit rate mode                            : Constant\nBit rate                                 : 128 Kbps\nChannel count                            : 2 channels\nChannel positions                        : Front: L R\nSampling rate                            : 44.1 KHz\nBit depth                                : 16 bits\nCompression mode                         : Lossy\nDelay relative to video                  : 13ms\nStream size                              : 95.3 MiB (9%)","torrent":{"xt":"urn:btih:5d882a99b8f2ef0f4eca959214c75619896a0834","amp;dn":"2+Guns+2013+WEBrip+XVID+AC3+BHRG","amp;tr":["udp%3A%2F%2Ftracker.openbittorrent.com%3A80","udp%3A%2F%2Fopen.demonii.com%3A1337","udp%3A%2F%2Ftracker.coppersurfer.tk%3A6969","udp%3A%2F%2Fexodus.desync.com%3A6969"],"infoHash":"5d882a99b8f2ef0f4eca959214c75619896a0834","infoHashBuffer":{"type":"Buffer","data":[93,136,42,153,184,242,239,15,78,202,149,146,20,199,86,25,137,106,8,52]},"announce":[],"urlList":[]}}